<?xml version="1.0" encoding="UTF-8"?>
<svg xmlns="http://www.w3.org/2000/svg" xmlns:xlink="http://www.w3.org/1999/xlink" width="120px" height="20px" viewBox="0 0 119 20" version="1.1">
<g id="surface1">
<path style=" stroke:none;fill-rule:nonzero;fill:rgb(11.372549%,14.117647%,17.647059%);fill-opacity:1;" d="M 17.304688 19.671875 L 12.773438 19.671875 L 4.59375 8.5 L 4.59375 19.671875 L 0.0234375 19.671875 L 0.0234375 0.375 L 4.246094 0.375 L 17.304688 18.070312 Z M 17.304688 19.671875 "/>
<path style=" stroke:none;fill-rule:nonzero;fill:rgb(87.45098%,70.588235%,30.980392%);fill-opacity:1;" d="M 12.734375 0.375 L 17.304688 0.375 L 17.304688 8.074219 L 12.734375 8.074219 Z M 12.734375 0.375 "/>
<path style=" stroke:none;fill-rule:nonzero;fill:rgb(11.372549%,14.117647%,17.647059%);fill-opacity:1;" d="M 40.160156 9.996094 C 40.160156 15.511719 35.707031 19.992188 30.1875 19.992188 C 24.671875 19.992188 20.195312 15.511719 20.195312 9.996094 C 20.195312 4.476562 24.671875 0 30.1875 0 C 35.707031 0 40.160156 4.457031 40.160156 9.996094 Z M 35.570312 9.976562 C 35.570312 7.003906 33.160156 4.589844 30.1875 4.589844 C 27.21875 4.589844 24.804688 7.003906 24.804688 9.976562 C 24.804688 12.945312 27.21875 15.359375 30.1875 15.359375 C 33.160156 15.359375 35.570312 12.949219 35.570312 9.976562 Z M 35.570312 9.976562 "/>
<path style=" stroke:none;fill-rule:nonzero;fill:rgb(11.372549%,14.117647%,17.647059%);fill-opacity:1;" d="M 59.191406 13.804688 C 59.191406 17.335938 56.683594 20 51.476562 20 C 47.773438 20 45.1875 18.726562 43.027344 16.546875 L 45.496094 13.074219 L 45.882812 13.476562 C 46.769531 14.402344 48.699219 15.949219 51.6875 15.949219 C 53.695312 15.949219 54.582031 15.097656 54.582031 14.269531 C 54.582031 13.246094 52.882812 12.839844 50.917969 12.378906 C 47.847656 11.644531 44.105469 10.660156 43.933594 6.261719 L 43.933594 5.738281 C 44.03125 2.59375 46.789062 0.0273438 51.246094 0.0273438 C 54.3125 0.0273438 56.972656 0.953125 59.113281 3.019531 L 56.53125 6.414062 L 56.164062 6.066406 C 54.792969 4.8125 52.863281 4.082031 50.859375 4.082031 C 49.429688 4.082031 48.582031 4.621094 48.582031 5.546875 C 48.582031 6.394531 50.183594 6.78125 52.035156 7.226562 C 55.179688 7.976562 59.019531 9 59.191406 13.4375 Z M 59.191406 13.804688 "/>
<path style=" stroke:none;fill-rule:nonzero;fill:rgb(11.372549%,14.117647%,17.647059%);fill-opacity:1;" d="M 77.464844 0.375 L 77.464844 4.445312 L 72.082031 4.445312 L 72.082031 19.671875 L 67.492188 19.671875 L 67.492188 4.445312 L 62.070312 4.445312 L 62.070312 0.375 Z M 77.464844 0.375 "/>
<path style=" stroke:none;fill-rule:nonzero;fill:rgb(11.372549%,14.117647%,17.647059%);fill-opacity:1;" d="M 96.003906 19.664062 L 90.757812 19.664062 L 87.226562 13.273438 L 84.953125 13.273438 L 84.953125 19.644531 L 80.378906 19.644531 L 80.378906 0.347656 L 89.40625 0.347656 C 93.417969 0.347656 95.890625 2.992188 95.890625 6.578125 C 95.890625 9.996094 93.75 11.828125 91.664062 12.308594 Z M 84.953125 8.722656 L 88.789062 8.722656 C 90.257812 8.722656 91.222656 7.871094 91.222656 6.578125 C 91.222656 5.285156 90.277344 4.4375 88.789062 4.4375 L 84.953125 4.4375 Z M 84.953125 8.722656 "/>
<path style=" stroke:none;fill-rule:nonzero;fill:rgb(11.372549%,14.117647%,17.647059%);fill-opacity:1;" d="M 111.53125 0.375 L 106.378906 0.375 L 98.914062 19.671875 L 104.105469 19.671875 L 108.964844 5.835938 L 111.394531 12.785156 L 113.808594 19.671875 L 118.976562 19.671875 Z M 111.53125 0.375 "/>
<path style=" stroke:none;fill-rule:nonzero;fill:rgb(87.45098%,70.588235%,30.980392%);fill-opacity:1;" d="M 108.960938 19.671875 L 105.894531 14.925781 L 111.996094 14.925781 Z M 108.960938 19.671875 "/>
</g>
</svg>
